<?xml version="1.0" encoding="UTF-8" standalone="no"?>
<!-- Created with Inkscape (http://www.inkscape.org/) -->

<svg
   xmlns:dc="http://purl.org/dc/elements/1.1/"
   xmlns:cc="http://creativecommons.org/ns#"
   xmlns:rdf="http://www.w3.org/1999/02/22-rdf-syntax-ns#"
   xmlns:svg="http://www.w3.org/2000/svg"
   xmlns="http://www.w3.org/2000/svg"
   xmlns:sodipodi="http://sodipodi.sourceforge.net/DTD/sodipodi-0.dtd"
   xmlns:inkscape="http://www.inkscape.org/namespaces/inkscape"
   width="744.09448819"
   height="1052.3622047"
   id="svg2"
   version="1.1"
   inkscape:version="0.48.4 r9939"
   inkscape:export-filename="/home/richard/DjangoProjects/Heroku/mytopten/static/cross40.png"
   inkscape:export-xdpi="90.059998"
   inkscape:export-ydpi="90.059998"
   sodipodi:docname="tickcrossbig.svg">
  <defs
     id="defs4" />
  <sodipodi:namedview
     id="base"
     pagecolor="#ffffff"
     bordercolor="#666666"
     borderopacity="1.0"
     inkscape:pageopacity="0.0"
     inkscape:pageshadow="2"
     inkscape:zoom="1.4"
     inkscape:cx="673.04048"
     inkscape:cy="511.36724"
     inkscape:document-units="px"
     inkscape:current-layer="layer1"
     showgrid="false"
     inkscape:window-width="1855"
     inkscape:window-height="1056"
     inkscape:window-x="65"
     inkscape:window-y="24"
     inkscape:window-maximized="1" />
  <metadata
     id="metadata7">
    <rdf:RDF>
      <cc:Work
         rdf:about="">
        <dc:format>image/svg+xml</dc:format>
        <dc:type
           rdf:resource="http://purl.org/dc/dcmitype/StillImage" />
        <dc:title />
      </cc:Work>
    </rdf:RDF>
  </metadata>
  <g
     inkscape:label="Layer 1"
     inkscape:groupmode="layer"
     id="layer1">
    <g
       id="g3861"
       transform="matrix(1.25,0,0,1.25,47.426407,-252.30692)"
       inkscape:export-filename="/home/richard/DjangoProjects/Heroku/mytopten/static/tickbig.png"
       inkscape:export-xdpi="90.059998"
       inkscape:export-ydpi="90.059998">
      <rect
         y="534.86206"
         x="85.055862"
         height="40"
         width="40"
         id="rect3836-7"
         style="fill:#3b5998;fill-opacity:1" />
      <g
         transform="translate(-171.22086,1.5152288)"
         id="text2985"
         style="font-size:40px;font-style:normal;font-variant:normal;font-weight:normal;font-stretch:normal;line-height:125%;letter-spacing:0px;word-spacing:0px;fill:#ffffff;fill-opacity:1;stroke:none;font-family:UnGraphic;-inkscape-font-specification:UnGraphic">
        <path
           inkscape:connector-curvature="0"
           id="path3061"
           style="font-size:56px;fill:#ffffff;fill-opacity:1"
           d="m 264.78084,551.66138 c 0.71092,2e-5 1.24868,0.58335 1.61328,1.75 0.72915,2.18751 1.24868,3.28126 1.55859,3.28125 0.23697,10e-6 0.48306,-0.18228 0.73828,-0.54688 5.12238,-7.52862 9.86196,-12.88799 14.21875,-16.07812 1.84112,-1.34893 3.63669,-2.02341 5.38672,-2.02344 2.31507,3e-5 3.7096,0.0729 4.1836,0.21875 0.20048,0.0547 0.30074,0.28259 0.30078,0.68359 -4e-5,0.32816 -0.20968,0.73832 -0.62891,1.23047 -11.72138,13.45315 -18.70314,22.20314 -20.94531,26.25 -0.76564,1.38542 -2.53387,2.07813 -5.30469,2.07813 -0.91147,0 -1.8685,-0.23698 -2.87109,-0.71094 -0.41928,-0.21874 -1.14845,-1.61327 -2.1875,-4.18359 -1.31251,-3.24478 -1.96876,-6.08853 -1.96875,-8.53125 -1e-5,-0.89321 0.63801,-1.63149 1.91406,-2.21485 1.74999,-0.80206 3.06249,-1.2031 3.9375,-1.20312 l 0.0547,0" />
      </g>
    </g>
    <g
       id="g3856"
       inkscape:export-filename="/home/richard/DjangoProjects/Heroku/mytopten/static/crossbig.png"
       inkscape:export-xdpi="90.059998"
       inkscape:export-ydpi="90.059998"
       transform="matrix(1.25,0,0,1.25,-20.455589,-124.09305)">
      <rect
         y="456.37219"
         x="81.822357"
         height="40"
         width="40"
         id="rect3836"
         style="fill:#3b5998;fill-opacity:1" />
      <g
         transform="matrix(1.2401849,0,0,1,-316.4898,-77.27667)"
         id="text3056"
         style="font-size:40px;font-style:normal;font-variant:normal;font-weight:normal;font-stretch:normal;line-height:125%;letter-spacing:0px;word-spacing:0px;fill:#ffffff;fill-opacity:1;stroke:none;font-family:Webdings;-inkscape-font-specification:Webdings">
        <path
           style="fill:#ffffff;fill-opacity:1"
           inkscape:connector-curvature="0"
           id="path3064"
           d="m 346.85901,539.43384 c 0.37758,3e-5 0.74216,0.19534 1.09375,0.58594 0.26039,0.28648 0.44268,0.80732 0.54687,1.5625 0.33852,-0.013 0.57289,0.013 0.70313,0.0781 0.41664,0.15628 0.71611,0.32555 0.89844,0.50781 0.18226,0.1693 0.2734,0.39065 0.27343,0.66407 -3e-5,0.52085 -0.10419,0.88544 -0.3125,1.09375 -3.13804,2.85158 -6.237,6.31512 -9.29687,10.39062 1.92706,2.65626 3.85414,5.03907 5.78125,7.14844 0.22133,0.23438 0.332,0.50782 0.33203,0.82031 -3e-5,0.63803 -0.19534,1.12631 -0.58594,1.46484 -0.26044,0.22136 -0.63153,0.34506 -1.11328,0.3711 -0.0261,0.22136 -0.13023,0.5599 -0.3125,1.01562 -0.31252,0.75521 -0.67711,1.13282 -1.09375,1.13282 -0.46877,0 -0.89846,-0.15625 -1.28906,-0.46875 -0.10419,0.23437 -0.24742,0.42318 -0.42969,0.5664 -0.46877,0.35157 -0.87893,0.52735 -1.23047,0.52735 -0.2995,0 -0.61851,-0.18229 -0.95703,-0.54688 -1.15887,-1.23697 -2.52606,-3.09895 -4.10156,-5.58594 -2.99481,3.39845 -5.06512,5.97657 -6.21094,7.73438 -0.22136,0.33854 -0.46876,0.50781 -0.74219,0.50781 -0.2474,0.026 -0.48829,-0.20833 -0.72265,-0.70312 -0.19532,-0.40365 -0.306,-0.69011 -0.33203,-0.85938 -0.26043,0.15625 -0.50782,0.23438 -0.74219,0.23438 -0.32553,0 -0.67709,-0.19532 -1.05469,-0.58594 -0.46875,-0.45573 -0.70313,-0.79427 -0.70312,-1.01563 -1e-5,-0.35156 0.1953,-0.82031 0.58593,-1.40625 -0.11719,-0.0391 -0.23438,-0.14322 -0.35156,-0.3125 -0.23438,-0.31249 -0.35157,-0.62499 -0.35156,-0.9375 -1e-5,-0.27343 0.15624,-0.61197 0.46875,-1.01562 1.6927,-2.29166 3.81509,-4.8177 6.36719,-7.57813 -1.58856,-2.46092 -3.02736,-5.42966 -4.31641,-8.90625 -0.28647,-0.79424 -0.42969,-1.37367 -0.42969,-1.73828 0,-0.33851 0.14973,-0.8268 0.44922,-1.46484 0.20833,-0.41664 0.45572,-0.62498 0.74219,-0.625 0.33853,2e-5 0.8203,0.25393 1.44531,0.76172 0.013,-0.18227 0.0911,-0.43617 0.23438,-0.76172 0.29947,-0.65102 0.55988,-0.97654 0.78125,-0.97656 0.55988,2e-5 0.92446,0.16929 1.09375,0.50781 1.38019,2.55211 3.04686,5.03908 5,7.46094 3.00779,-3.43748 6.13279,-6.5755 9.375,-9.41407 0.15622,-0.15622 0.32549,-0.23434 0.50781,-0.23437" />
      </g>
    </g>
    <g
       id="g3276"
       transform="translate(-160,-27.142857)">
      <rect
         y="465.42151"
         x="380.6629"
         height="50"
         width="50"
         id="rect3836-7-7"
         style="fill:#3b5998;fill-opacity:1" />
      <g
         style="fill:#ffffff"
         transform="matrix(0.17955246,0,0,0.17955246,300.04918,388.11037)"
         id="g3258">
        <path
           inkscape:connector-curvature="0"
           id="path3274"
           d="m 577.72911,694.21979 c -3.20106,-1.69095 -7.83049,-6.64382 -7.83049,-8.37758 0,-0.3276 7.65,-0.59563 17,-0.59563 9.72485,0 17,0.39512 17,0.92327 0,1.862 -5.49893,7.38725 -8.67119,8.7127 -4.70654,1.96652 -13.1245,1.64768 -17.49832,-0.66276 z m -18.63049,-14.17321 c -0.66,-0.66 -1.2,-2.82 -1.2,-4.8 0,-1.98 0.54,-4.14 1.2,-4.8 1.46136,-1.46136 53.46678,-1.69649 55.75,-0.25206 1.8181,1.15018 1.90132,7.32135 0.12756,9.45861 -1.14951,1.38507 -4.81123,1.59345 -28,1.59345 -19.41588,0 -27.0042,-0.32664 -27.87756,-1.2 z m 0,-16 c -1.99454,-1.99454 -1.50018,-8.56898 0.73426,-9.76482 1.18756,-0.63556 11.72985,-1.03518 27.30887,-1.03518 28.54563,0 29.15687,0.13522 29.15687,6.4502 0,2.13027 -0.61166,4.07151 -1.45,4.60186 -2.28322,1.44443 -54.28864,1.2093 -55.75,-0.25206 z m -0.79802,-16.19484 c -0.29439,-0.76716 -0.39276,-3.12966 -0.21861,-5.25 l 0.31663,-3.85516 28.41667,0 28.41666,0 0.86618,2.59852 c 0.52157,1.56471 0.46511,3.6534 -0.14192,5.25 l -1.00809,2.65148 -28.05613,0 c -23.07619,0 -28.15115,-0.24758 -28.59139,-1.39484 z m 3.68678,-15.52407 c -6.14732,-1.05687 -9.37984,-4.94466 -11.37987,-13.68671 -0.86753,-3.79191 -2.5506,-11.16938 -3.74016,-16.39438 -2.95955,-12.99949 -9.5798,-29.62831 -18.91066,-47.5 -9.45743,-18.11411 -12.0321,-25.8842 -12.76958,-38.5372 -1.51334,-25.96489 10.98361,-50.62312 32.6535,-64.42992 12.85303,-8.18921 24.08847,-11.49489 39.14805,-11.5181 39.82173,-0.0614 71.90996,32.0819 71.90996,72.03332 0,13.61482 -2.79912,22.45685 -14.24386,44.99434 -10.34733,20.37644 -16.29715,36.79004 -19.81278,54.65703 -2.35945,11.99108 -4.23521,16.13448 -8.59977,18.9962 -2.43476,1.5964 -5.46529,1.82389 -26.29774,1.97407 -12.95022,0.0934 -25.53091,-0.17153 -27.95709,-0.58865 z"
           style="fill:#ffffff;fill-opacity:1" />
        <path
           inkscape:connector-curvature="0"
           id="path3272"
           d="m 577.27643,693.75666 c -3.55595,-2.13158 -7.37781,-6.26274 -7.37781,-7.9749 0,-0.29435 7.65,-0.53518 17,-0.53518 9.35,0 17,0.26803 17,0.59563 0,0.3276 -0.9379,1.91278 -2.08421,3.52264 -4.95195,6.95437 -16.7426,9.06466 -24.53798,4.39181 z m -17.62781,-13.59018 c -2.05526,-1.19708 -2.43109,-7.83882 -0.55,-9.7199 1.70979,-1.70979 53.89021,-1.70979 55.6,0 1.99454,1.99454 1.50018,8.56898 -0.73426,9.76482 -2.58076,1.38118 -51.93735,1.34036 -54.31574,-0.0449 z m -0.55,-16.1199 c -0.66,-0.66 -1.2,-2.92114 -1.2,-5.02475 0,-3.18549 0.42873,-3.98775 2.5651,-4.8 1.4108,-0.53639 13.30651,-0.97525 26.4349,-0.97525 13.12839,0 25.0241,0.43886 26.4349,0.97525 2.13637,0.81225 2.5651,1.61451 2.5651,4.8 0,2.10361 -0.54,4.36475 -1.2,5.02475 -1.70979,1.70979 -53.89021,1.70979 -55.6,0 z m -0.79203,-16.17922 c -0.29768,-0.77575 -0.39875,-3.14528 -0.2246,-5.26562 l 0.31663,-3.85516 28.5,0 28.5,0 0,5 0,5 -28.27539,0.26562 c -23.58978,0.2216 -28.36509,0.0319 -28.81664,-1.14484 z m 4.63582,-15.30922 c -4.51615,-0.61288 -8.42767,-3.47393 -10.31093,-7.54187 -0.83255,-1.79833 -2.70375,-9.01587 -4.15822,-16.03897 -3.70494,-17.88978 -7.15283,-27.16276 -19.04867,-51.23072 -12.58907,-25.47055 -13.95632,-29.97312 -13.96833,-46 -0.0156,-20.798 5.91956,-35.0026 20.94242,-50.12157 7.77859,-7.82835 10.40594,-9.7658 18.53176,-13.66564 21.61956,-10.37592 42.60674,-10.39261 63.96818,-0.0509 8.08403,3.91373 10.85925,5.95849 18.61944,13.71867 7.83973,7.83974 9.75385,10.45254 13.64048,18.61944 5.65844,11.88997 7.74008,20.44117 7.74008,31.79555 0,13.61997 -2.54756,21.66697 -14.4638,45.68701 -11.59754,23.3776 -15.30094,33.3751 -19.12236,51.62171 -3.04001,14.51548 -4.54438,18.13904 -8.78713,21.16542 -3.00597,2.14418 -4.0342,2.23573 -26.62671,2.37061 -12.925,0.0772 -25.05529,-0.0708 -26.95621,-0.32874 z"
           style="fill:#ffffff;fill-opacity:1" />
        <path
           inkscape:connector-curvature="0"
           id="path3270"
           d="m 577.28817,693.6534 c -3.82741,-2.55176 -7.32369,-6.18543 -7.36731,-7.65682 -0.0122,-0.4125 7.62776,-0.75 16.97776,-0.75 9.35,0 17,0.24083 17,0.53518 0,1.7468 -3.87284,5.89203 -7.47972,8.0058 -5.93077,3.47567 -13.79907,3.42049 -19.13073,-0.13416 z m -18.70762,-14.05822 c -1.14159,-1.1416 -0.76058,-7.86995 0.51807,-9.1486 0.87336,-0.87336 8.46168,-1.2 27.87756,-1.2 29.71076,0 29.29498,-0.0967 28.73697,6.68021 l -0.31453,3.81979 -28.06807,0.26526 c -15.43744,0.1459 -28.37494,-0.0416 -28.75,-0.41666 z m 0.37599,-15.77881 c -0.65283,-0.78662 -1.04543,-3.14912 -0.87245,-5.25 l 0.31453,-3.81979 28.5,0 28.5,0 0.31453,3.81979 c 0.55814,6.77841 0.98173,6.68021 -28.81453,6.68021 -21.98213,0 -26.96686,-0.25514 -27.94208,-1.43021 z m -0.44503,-16.1362 c -1.0056,-2.62054 -0.69691,-6.94957 0.58711,-8.23359 1.40892,-1.40892 53.42727,-1.7228 55.61487,-0.33558 0.84969,0.53882 1.20348,2.39076 1,5.23469 l -0.31487,4.40089 -28.13711,0.26538 c -25.00513,0.23584 -28.20533,0.0876 -28.75,-1.33179 z m -1.1445,-17.28982 c -3.87668,-2.3641 -5.87202,-7.08128 -8.52069,-20.14377 -3.46348,-17.08086 -8.31147,-30.36643 -18.91432,-51.83325 -12.85536,-26.02733 -14.47497,-31.19027 -14.48247,-46.16675 -0.007,-13.63976 1.63766,-20.69042 7.69689,-33 5.27337,-10.71309 17.65433,-23.71028 28.08555,-29.48344 12.36959,-6.84595 20.33284,-8.87245 35.16665,-8.94925 14.78397,-0.0765 22.40629,1.71857 35,8.24279 10.68897,5.53747 23.91759,19.15014 29.33816,30.1899 5.42625,11.05134 8.16184,22.02588 8.16184,32.74335 0,13.26044 -2.75352,22.13203 -13.4258,43.25665 -13.17522,26.07892 -16.05689,34.21523 -22.06323,62.29486 -1.36353,6.37447 -2.29695,8.42445 -5.12249,11.25 l -3.45515,3.45514 -27.21666,-0.004 c -24.71063,-0.003 -27.49581,-0.17396 -30.24828,-1.85249 z"
           style="fill:#ffffff;fill-opacity:1" />
        <path
           inkscape:connector-curvature="0"
           id="path3268"
           d="m 579.3647,694.84657 c -3.05173,-1.32949 -8.49697,-6.40677 -8.47687,-7.90404 0.008,-0.57987 24.6889,-1.12834 32.53384,-0.72298 1.57027,0.0811 -3.4082,5.46146 -7.00277,7.56801 -4.76796,2.79422 -12.03531,3.24549 -17.0542,1.05901 z m -20.78415,-15.25139 c -0.37506,-0.37506 -0.68193,-2.3911 -0.68193,-4.48008 0,-2.73167 0.54312,-4.08882 1.93426,-4.83334 1.19075,-0.63727 11.90653,-1.03518 27.87755,-1.03518 28.9015,0 28.55949,-0.0816 28.00272,6.68021 l -0.31453,3.81979 -28.06807,0.26526 c -15.43744,0.1459 -28.37494,-0.0416 -28.75,-0.41666 z m 0.37599,-15.77881 c -0.65283,-0.78662 -1.04543,-3.14912 -0.87245,-5.25 l 0.31453,-3.81979 28.5,0 28.5,0 0.31453,3.81979 c 0.55814,6.77841 0.98173,6.68021 -28.81453,6.68021 -21.98213,0 -26.96686,-0.25514 -27.94208,-1.43021 z m 0.14208,-15.76979 c -1.55008,-1.55009 -1.55008,-7.04991 0,-8.6 1.70979,-1.70979 53.89021,-1.70979 55.6,0 0.66,0.66 1.2,2.595 1.2,4.3 0,1.705 -0.54,3.64 -1.2,4.3 -1.70979,1.70979 -53.89021,1.70979 -55.6,0 z m -1.79873,-17.69705 c -3.85735,-2.35216 -5.55882,-6.5261 -8.39865,-20.60295 -3.80254,-18.84898 -9.75772,-34.56738 -21.62417,-57.07594 -10.72483,-20.3431 -13.73663,-32.99403 -11.62037,-48.81078 2.34393,-17.5183 8.31772,-29.64172 20.74208,-42.09469 9.13169,-9.15273 17.50571,-14.41327 28.99984,-18.21763 7.06165,-2.3373 9.58346,-2.64814 21.5,-2.65013 11.78812,-0.002 14.47218,0.32022 21.16665,2.54078 30.49257,10.1144 50.83335,37.81005 50.83335,69.2138 0,11.86531 -2.991,21.00254 -14.92502,45.59459 -11.5503,23.80134 -15.50013,34.63738 -19.13667,52.5 -1.23168,6.05 -3.07609,12.67823 -4.09868,14.72939 -3.25053,6.5201 -4.51301,6.77107 -34.03997,6.76687 -24.0235,-0.003 -26.56785,-0.16727 -29.39839,-1.89331 z"
           style="fill:#ffffff;fill-opacity:1" />
        <path
           inkscape:connector-curvature="0"
           id="path3266"
           d="m 579.39862,694.80302 c -1.65,-0.7643 -4.55078,-3.00217 -6.44617,-4.97304 l -3.44616,-3.5834 17.24285,0 17.24285,0 -1.79669,2.395 c -4.88265,6.50862 -15.72237,9.43836 -22.79668,6.16144 z m -20.88711,-16.12285 c -1.26383,-3.29348 -0.62449,-7.35701 1.32137,-8.39841 1.18756,-0.63556 11.72985,-1.03518 27.30887,-1.03518 28.76012,0 29.10653,0.0793 28.57976,6.53988 l -0.32289,3.96012 -28.13711,0.26538 c -25.00513,0.23584 -28.20533,0.0876 -28.75,-1.33179 z m 1.13711,-14.51369 c -1.83756,-1.07028 -2.39478,-6.35585 -0.9157,-8.68604 0.62379,-0.98273 7.05561,-1.20656 28.73469,-1 l 27.93101,0.26614 0.32289,3.96012 c 0.52758,6.47046 0.20289,6.54393 -28.76402,6.50947 -15.49245,-0.0184 -26.24811,-0.43185 -27.30887,-1.04969 z m -0.55,-16.1199 c -1.55008,-1.55009 -1.55008,-7.04991 0,-8.6 1.70979,-1.70979 53.89021,-1.70979 55.6,0 0.66,0.66 1.2,2.595 1.2,4.3 0,1.705 -0.54,3.64 -1.2,4.3 -1.70979,1.70979 -53.89021,1.70979 -55.6,0 z m -1.79873,-17.69705 c -3.72906,-2.27394 -5.71639,-6.88204 -7.85268,-18.20833 -3.70177,-19.62625 -9.82372,-36.10484 -22.06567,-59.39462 -10.62757,-20.21849 -13.68962,-33.38319 -11.49424,-49.41731 2.25657,-16.48107 8.99731,-30.22538 20.43271,-41.66214 19.83876,-19.84111 48.04381,-26.28322 74.6157,-17.04243 29.17369,10.14561 49.60869,40.37056 47.67091,70.509 -0.82651,12.85487 -2.78503,18.75142 -13.15731,39.61288 -13.13978,26.42767 -17.13346,37.32404 -21.0746,57.5 -0.9132,4.675 -2.47947,10.38055 -3.48059,12.679 -3.08865,7.09115 -4.16529,7.32153 -34.19584,7.31726 -24.0235,-0.003 -26.56785,-0.16727 -29.39839,-1.89331 z"
           style="fill:#ffffff;fill-opacity:1" />
        <path
           inkscape:connector-curvature="0"
           id="path3264"
           d="m 579.39862,694.58773 c -3.40217,-1.79041 -8.5,-6.30544 -8.5,-7.52824 0,-0.4471 7.2,-0.81291 16,-0.81291 8.8,0 16,0.36172 16,0.80383 0,1.31712 -6.2843,6.73099 -9.29705,8.00934 -3.86802,1.64125 -10.61326,1.41708 -14.20295,-0.47202 z m -20.89301,-15.92294 c -1.25843,-3.2794 -0.61495,-7.34358 1.32727,-8.38303 1.18615,-0.6348 11.65432,-1.03518 27.06574,-1.03518 15.41142,0 25.87959,0.40038 27.06574,1.03518 1.2257,0.65598 1.93426,2.09131 1.93426,3.91822 0,6.35032 1.45666,6.0466 -29,6.0466 -24.41473,0 -27.85967,-0.19192 -28.39301,-1.58179 z m 1.14301,-14.49831 c -2.0367,-1.18627 -2.39547,-6.87443 -0.55,-8.7199 0.87449,-0.87449 8.57622,-1.2 28.39301,-1.2 29.80255,0 28.40699,-0.29705 28.40699,6.0466 0,1.82691 -0.70856,3.26224 -1.93426,3.91822 -2.58076,1.38118 -51.93735,1.34036 -54.31574,-0.0449 z m -0.55,-16.1199 c -1.55008,-1.55009 -1.55008,-7.04991 0,-8.6 1.70979,-1.70979 53.89021,-1.70979 55.6,0 0.66,0.66 1.2,2.595 1.2,4.3 0,1.705 -0.54,3.64 -1.2,4.3 -1.70979,1.70979 -53.89021,1.70979 -55.6,0 z m -0.75134,-17.35146 c -4.46746,-2.20481 -5.86115,-5.36619 -9.41301,-21.35209 -4.45776,-20.06306 -7.59613,-28.50335 -19.55704,-52.59645 -11.87706,-23.92419 -13.77312,-30.12081 -13.76925,-45 0.004,-15.91272 4.69056,-29.82954 14.49242,-43.03687 19.16005,-25.81683 55.5803,-35.34939 85.39075,-22.34999 30.72108,13.39649 48.98631,48.77943 41.49696,80.38686 -1.60696,6.78192 -4.69846,14.17553 -12.54391,30 -11.44712,23.08911 -16.33723,36.3214 -19.58665,53 -2.79913,14.36735 -4.70949,18.67922 -9.2251,20.82202 -4.98864,2.36726 -52.53214,2.47227 -57.28517,0.12652 z"
           style="fill:#ffffff;fill-opacity:1" />
        <path
           inkscape:connector-curvature="0"
           id="path3262"
           d="m 579.89862,694.65228 c -3.57253,-1.54744 -9,-6.12629 -9,-7.59279 0,-0.4471 7.2,-0.81291 16,-0.81291 8.8,0 16,0.36581 16,0.81291 0,1.52807 -5.495,6.07891 -9.21788,7.63404 -4.63619,1.93665 -9.24765,1.92284 -13.78212,-0.0412 z m -20.8,-15.6057 c -1.36187,-1.36187 -1.57004,-5.66878 -0.3657,-7.56614 0.62379,-0.98273 7.05561,-1.20656 28.73469,-1 l 27.93101,0.26614 0.31823,3.31532 c 0.59567,6.20564 0.69306,6.18468 -28.74067,6.18468 -19.41588,0 -27.0042,-0.32664 -27.87756,-1.2 z m -0.58711,-16.36641 c -0.98344,-2.5628 -0.70958,-5.9369 0.58711,-7.23359 0.87336,-0.87336 8.46168,-1.2 27.87756,-1.2 29.43373,0 29.33634,-0.021 28.74067,6.18468 l -0.31823,3.31532 -28.13711,0.26538 c -25.00513,0.23584 -28.20533,0.0876 -28.75,-1.33179 z m 0.58711,-14.63359 c -1.55008,-1.55009 -1.55008,-7.04991 0,-8.6 1.70979,-1.70979 53.89021,-1.70979 55.6,0 0.66,0.66 1.2,2.595 1.2,4.3 0,1.705 -0.54,3.64 -1.2,4.3 -1.70979,1.70979 -53.89021,1.70979 -55.6,0 z m 1.3,-16.61952 c -6.05563,-2.06037 -7.78013,-5.26198 -10.91004,-20.25497 -3.80298,-18.2172 -8.8898,-32.25188 -18.8202,-51.92551 -10.67895,-21.15662 -13.49637,-28.66432 -14.66,-39.06505 -3.44188,-30.76424 12.8764,-59.77591 40.99678,-72.88662 9.99895,-4.66187 18.09475,-6.39332 29.89346,-6.39332 12.47291,0 20.1985,1.78363 31.5,7.27247 24.90709,12.09673 39.5,35.55198 39.5,63.48853 0,15.50367 -1.63547,20.94741 -13.54461,45.08399 -11.91708,24.15266 -15.04899,32.60409 -19.49104,52.59645 -1.76016,7.92195 -3.87462,15.56554 -4.6988,16.98575 -3.06062,5.27396 -3.79934,5.40415 -31.76555,5.59828 -14.3,0.0993 -26.9,-0.12573 -28,-0.5 z"
           style="fill:#ffffff;fill-opacity:1" />
        <path
           inkscape:connector-curvature="0"
           id="path3260"
           d="m 580.39862,694.74457 c -2.2,-0.77782 -5.33248,-2.89557 -6.96106,-4.70611 l -2.96107,-3.29188 15.85163,-0.27611 c 8.71839,-0.15186 16.09014,-0.0376 16.38167,0.25395 0.96717,0.96716 -4.24934,5.75746 -8.31117,7.63212 -4.76063,2.19717 -8.58334,2.30312 -14,0.38803 z m -21.3,-15.69799 c -1.29371,-1.29371 -1.57105,-4.66949 -0.59301,-7.21821 0.53334,-1.38987 3.97828,-1.58179 28.39301,-1.58179 24.41473,0 27.85967,0.19192 28.39301,1.58179 0.97804,2.54872 0.7007,5.9245 -0.59301,7.21821 -1.70979,1.70979 -53.89021,1.70979 -55.6,0 z m -0.59301,-16.38179 c -0.97804,-2.54872 -0.7007,-5.9245 0.59301,-7.21821 1.70979,-1.70979 53.89021,-1.70979 55.6,0 1.29371,1.29371 1.57105,4.66949 0.59301,7.21821 -0.53334,1.38987 -3.97828,1.58179 -28.39301,1.58179 -24.41473,0 -27.85967,-0.19192 -28.39301,-1.58179 z m 0.59301,-14.61821 c -1.95411,-1.95411 -1.48296,-7.5782 0.73426,-8.76482 1.18615,-0.6348 11.65432,-1.03518 27.06574,-1.03518 15.41142,0 25.87959,0.40038 27.06574,1.03518 2.21722,1.18662 2.68837,6.81071 0.73426,8.76482 -1.70979,1.70979 -53.89021,1.70979 -55.6,0 z m -0.28427,-17.39238 c -4.67846,-1.94398 -6.31452,-5.51067 -9.5095,-20.73115 -3.87768,-18.4728 -7.8281,-29.19375 -19.20865,-52.1299 -13.01676,-26.23372 -14.66739,-32.04473 -13.92303,-49.01562 0.37746,-8.60601 1.15122,-13.88135 2.71802,-18.53095 10.19029,-30.24048 36.19744,-49.06231 68.00743,-49.21818 28.09652,-0.13768 52.80658,15.49118 64.64382,40.88654 4.58635,9.83945 6.32399,18.03846 6.3414,29.92168 0.0217,14.80492 -2.16545,21.90595 -14.37839,46.68261 -11.55725,23.44645 -15.30731,33.69 -19.13447,52.26708 -4.49097,21.79927 -3.92926,21.48065 -37.7426,21.40874 -19.09861,-0.0406 -24.9888,-0.36692 -27.81403,-1.54085 z"
           style="fill:#ffffff;fill-opacity:1" />
      </g>
    </g>
  </g>
</svg>
