<?xml version="1.0" encoding="UTF-8" standalone="no"?>
<!-- Created with Inkscape (http://www.inkscape.org/) -->

<svg
   xmlns:dc="http://purl.org/dc/elements/1.1/"
   xmlns:cc="http://creativecommons.org/ns#"
   xmlns:rdf="http://www.w3.org/1999/02/22-rdf-syntax-ns#"
   xmlns:svg="http://www.w3.org/2000/svg"
   xmlns="http://www.w3.org/2000/svg"
   xmlns:sodipodi="http://sodipodi.sourceforge.net/DTD/sodipodi-0.dtd"
   xmlns:inkscape="http://www.inkscape.org/namespaces/inkscape"
   width="744.09448819"
   height="1052.3622047"
   id="svg2"
   version="1.1"
   inkscape:version="0.48.4 r9939"
   inkscape:export-filename="/home/richard/DjangoProjects/Heroku/mytopten/static/cross40.png"
   inkscape:export-xdpi="90.059998"
   inkscape:export-ydpi="90.059998"
   sodipodi:docname="New document 1">
  <defs
     id="defs4" />
  <sodipodi:namedview
     id="base"
     pagecolor="#ffffff"
     bordercolor="#666666"
     borderopacity="1.0"
     inkscape:pageopacity="0.0"
     inkscape:pageshadow="2"
     inkscape:zoom="1.979899"
     inkscape:cx="273.89635"
     inkscape:cy="468.62873"
     inkscape:document-units="px"
     inkscape:current-layer="layer1"
     showgrid="false"
     inkscape:window-width="1855"
     inkscape:window-height="1056"
     inkscape:window-x="65"
     inkscape:window-y="24"
     inkscape:window-maximized="1" />
  <metadata
     id="metadata7">
    <rdf:RDF>
      <cc:Work
         rdf:about="">
        <dc:format>image/svg+xml</dc:format>
        <dc:type
           rdf:resource="http://purl.org/dc/dcmitype/StillImage" />
        <dc:title></dc:title>
      </cc:Work>
    </rdf:RDF>
  </metadata>
  <g
     inkscape:label="Layer 1"
     inkscape:groupmode="layer"
     id="layer1">
    <g
       id="g3861"
       transform="matrix(1.25,0,0,1.25,47.426407,-252.30692)"
       inkscape:export-filename="/home/richard/DjangoProjects/Heroku/mytopten/static/tickbig.png"
       inkscape:export-xdpi="90.059998"
       inkscape:export-ydpi="90.059998">
      <rect
         y="534.86206"
         x="85.055862"
         height="40"
         width="40"
         id="rect3836-7"
         style="fill:#3b5998;fill-opacity:1" />
      <g
         transform="translate(-171.22086,1.5152288)"
         id="text2985"
         style="font-size:40px;font-style:normal;font-variant:normal;font-weight:normal;font-stretch:normal;line-height:125%;letter-spacing:0px;word-spacing:0px;fill:#ffffff;fill-opacity:1;stroke:none;font-family:UnGraphic;-inkscape-font-specification:UnGraphic">
        <path
           inkscape:connector-curvature="0"
           id="path3061"
           style="font-size:56px;fill:#ffffff;fill-opacity:1"
           d="m 264.78084,551.66138 c 0.71092,2e-5 1.24868,0.58335 1.61328,1.75 0.72915,2.18751 1.24868,3.28126 1.55859,3.28125 0.23697,10e-6 0.48306,-0.18228 0.73828,-0.54688 5.12238,-7.52862 9.86196,-12.88799 14.21875,-16.07812 1.84112,-1.34893 3.63669,-2.02341 5.38672,-2.02344 2.31507,3e-5 3.7096,0.0729 4.1836,0.21875 0.20048,0.0547 0.30074,0.28259 0.30078,0.68359 -4e-5,0.32816 -0.20968,0.73832 -0.62891,1.23047 -11.72138,13.45315 -18.70314,22.20314 -20.94531,26.25 -0.76564,1.38542 -2.53387,2.07813 -5.30469,2.07813 -0.91147,0 -1.8685,-0.23698 -2.87109,-0.71094 -0.41928,-0.21874 -1.14845,-1.61327 -2.1875,-4.18359 -1.31251,-3.24478 -1.96876,-6.08853 -1.96875,-8.53125 -1e-5,-0.89321 0.63801,-1.63149 1.91406,-2.21485 1.74999,-0.80206 3.06249,-1.2031 3.9375,-1.20312 l 0.0547,0" />
      </g>
    </g>
    <g
       id="g3856"
       inkscape:export-filename="/home/richard/DjangoProjects/Heroku/mytopten/static/crossbig.png"
       inkscape:export-xdpi="90.059998"
       inkscape:export-ydpi="90.059998"
       transform="matrix(1.25,0,0,1.25,-20.455589,-124.09305)">
      <rect
         y="456.37219"
         x="81.822357"
         height="40"
         width="40"
         id="rect3836"
         style="fill:#3b5998;fill-opacity:1" />
      <g
         transform="matrix(1.2401849,0,0,1,-316.4898,-77.27667)"
         id="text3056"
         style="font-size:40px;font-style:normal;font-variant:normal;font-weight:normal;font-stretch:normal;line-height:125%;letter-spacing:0px;word-spacing:0px;fill:#ffffff;fill-opacity:1;stroke:none;font-family:Webdings;-inkscape-font-specification:Webdings">
        <path
           style="fill:#ffffff;fill-opacity:1"
           inkscape:connector-curvature="0"
           id="path3064"
           d="m 346.85901,539.43384 c 0.37758,3e-5 0.74216,0.19534 1.09375,0.58594 0.26039,0.28648 0.44268,0.80732 0.54687,1.5625 0.33852,-0.013 0.57289,0.013 0.70313,0.0781 0.41664,0.15628 0.71611,0.32555 0.89844,0.50781 0.18226,0.1693 0.2734,0.39065 0.27343,0.66407 -3e-5,0.52085 -0.10419,0.88544 -0.3125,1.09375 -3.13804,2.85158 -6.237,6.31512 -9.29687,10.39062 1.92706,2.65626 3.85414,5.03907 5.78125,7.14844 0.22133,0.23438 0.332,0.50782 0.33203,0.82031 -3e-5,0.63803 -0.19534,1.12631 -0.58594,1.46484 -0.26044,0.22136 -0.63153,0.34506 -1.11328,0.3711 -0.0261,0.22136 -0.13023,0.5599 -0.3125,1.01562 -0.31252,0.75521 -0.67711,1.13282 -1.09375,1.13282 -0.46877,0 -0.89846,-0.15625 -1.28906,-0.46875 -0.10419,0.23437 -0.24742,0.42318 -0.42969,0.5664 -0.46877,0.35157 -0.87893,0.52735 -1.23047,0.52735 -0.2995,0 -0.61851,-0.18229 -0.95703,-0.54688 -1.15887,-1.23697 -2.52606,-3.09895 -4.10156,-5.58594 -2.99481,3.39845 -5.06512,5.97657 -6.21094,7.73438 -0.22136,0.33854 -0.46876,0.50781 -0.74219,0.50781 -0.2474,0.026 -0.48829,-0.20833 -0.72265,-0.70312 -0.19532,-0.40365 -0.306,-0.69011 -0.33203,-0.85938 -0.26043,0.15625 -0.50782,0.23438 -0.74219,0.23438 -0.32553,0 -0.67709,-0.19532 -1.05469,-0.58594 -0.46875,-0.45573 -0.70313,-0.79427 -0.70312,-1.01563 -1e-5,-0.35156 0.1953,-0.82031 0.58593,-1.40625 -0.11719,-0.0391 -0.23438,-0.14322 -0.35156,-0.3125 -0.23438,-0.31249 -0.35157,-0.62499 -0.35156,-0.9375 -1e-5,-0.27343 0.15624,-0.61197 0.46875,-1.01562 1.6927,-2.29166 3.81509,-4.8177 6.36719,-7.57813 -1.58856,-2.46092 -3.02736,-5.42966 -4.31641,-8.90625 -0.28647,-0.79424 -0.42969,-1.37367 -0.42969,-1.73828 0,-0.33851 0.14973,-0.8268 0.44922,-1.46484 0.20833,-0.41664 0.45572,-0.62498 0.74219,-0.625 0.33853,2e-5 0.8203,0.25393 1.44531,0.76172 0.013,-0.18227 0.0911,-0.43617 0.23438,-0.76172 0.29947,-0.65102 0.55988,-0.97654 0.78125,-0.97656 0.55988,2e-5 0.92446,0.16929 1.09375,0.50781 1.38019,2.55211 3.04686,5.03908 5,7.46094 3.00779,-3.43748 6.13279,-6.5755 9.375,-9.41407 0.15622,-0.15622 0.32549,-0.23434 0.50781,-0.23437" />
      </g>
    </g>
  </g>
</svg>
